<svg width="33" height="33" viewBox="0 0 33 33" fill="none" xmlns="http://www.w3.org/2000/svg">
<path d="M28.2065 10.692L27.8478 11.541C27.7917 11.6793 27.6971 11.7974 27.576 11.8804C27.4548 11.9635 27.3124 12.0078 27.1667 12.0078C27.0211 12.0078 26.8787 11.9635 26.7575 11.8804C26.6364 11.7974 26.5418 11.6793 26.4857 11.541L26.127 10.692C25.4962 9.19012 24.3411 7.98591 22.8895 7.31703L21.7826 6.80853C21.6483 6.745 21.5345 6.64319 21.4548 6.51518C21.3751 6.38717 21.3327 6.23832 21.3327 6.08628C21.3327 5.93425 21.3751 5.7854 21.4548 5.65739C21.5345 5.52938 21.6483 5.42757 21.7826 5.36403L22.8282 4.88553C24.3163 4.1976 25.4912 2.94886 26.1109 1.39653L26.4799 0.480035C26.5341 0.338066 26.6286 0.216182 26.7511 0.130272C26.8736 0.0443628 27.0185 -0.00158691 27.1667 -0.00158691C27.315 -0.00158691 27.4599 0.0443628 27.5824 0.130272C27.7049 0.216182 27.7994 0.338066 27.8536 0.480035L28.2226 1.39503C28.8416 2.94765 30.016 4.19693 31.5038 4.88553L32.5509 5.36553C32.6848 5.42925 32.7981 5.53105 32.8776 5.6589C32.957 5.78674 32.9992 5.9353 32.9992 6.08703C32.9992 6.23876 32.957 6.38733 32.8776 6.51517C32.7981 6.64302 32.6848 6.74482 32.5509 6.80853L31.4426 7.31553C29.9913 7.98508 28.8366 9.18982 28.2065 10.692ZM27.1667 15C28.1566 15.0008 29.1393 14.8289 30.0732 14.4915C30.08 14.6615 30.0834 14.831 30.0834 15C30.0834 18.1826 28.8543 21.2349 26.6663 23.4853C24.4784 25.7358 21.5109 27 18.4167 27V32.25C11.1251 29.25 0.916748 24.75 0.916748 15C0.916748 11.8174 2.14591 8.76519 4.33384 6.51475C6.52176 4.26432 9.48922 3.00003 12.5834 3.00003H18.4167C18.582 3.00003 18.7468 3.00353 18.9111 3.01053C18.4464 4.36792 18.3049 5.82015 18.4985 7.2454C18.6921 8.67065 19.2151 10.0274 20.0238 11.2018C20.8324 12.3761 21.9031 13.334 23.146 13.9948C24.3888 14.6557 25.7676 15.0004 27.1667 15Z" fill="#49454F"/>
</svg>
